<svg xmlns="http://www.w3.org/2000/svg" xmlns:xlink="http://www.w3.org/1999/xlink" width="837" height="190" viewBox="0 0 837 190">
  <defs>
    <clipPath id="clip-path">
      <rect id="Rectangle_41" data-name="Rectangle 41" width="327.195" height="175.175" fill="none"/>
    </clipPath>
    <clipPath id="clip-App_Logo">
      <rect width="837" height="190"/>
    </clipPath>
  </defs>
  <g id="App_Logo" data-name="App Logo" clip-path="url(#clip-App_Logo)">
    <g id="Group_6" data-name="Group 6" transform="translate(-974.5 -37.881)">
      <g id="Group_5" data-name="Group 5" transform="translate(954.5 50)">
        <path id="Path_18" data-name="Path 18" d="M62.509-77.634,51.342-71.017q-3.131-5.436-5.967-7.09A13.921,13.921,0,0,0,37.753-80a14.078,14.078,0,0,0-9.512,3.25,10.073,10.073,0,0,0-3.781,8.035q0,6.676,9.926,10.753l9.1,3.722q11.107,4.49,16.248,10.96a24.7,24.7,0,0,1,5.14,15.864q0,12.584-8.39,20.8A28.8,28.8,0,0,1,35.508,1.654q-11.875,0-19.615-7.031Q8.271-12.407,6.381-25.169l13.943-3.072q.945,8.035,3.309,11.107,4.254,5.908,12.407,5.908a14.4,14.4,0,0,0,10.694-4.313,14.921,14.921,0,0,0,4.254-10.93,15.338,15.338,0,0,0-.739-4.874,12.368,12.368,0,0,0-2.3-4.077A18.417,18.417,0,0,0,43.9-38.906a38.989,38.989,0,0,0-5.908-3.1l-8.8-3.663q-18.729-7.917-18.729-23.16a21.973,21.973,0,0,1,7.858-17.193Q26.173-93,37.872-93,53.646-93,62.509-77.634ZM91.778-91.223,115.529-30.25l24.814-65.4,23.751,65.4,25.228-60.973H204.27L163.5,5.79,140.048-58.846,115.588,5.849,76.83-91.223ZM267.512-22.156H228.458L218.3,0h-14.83l45.139-96.954L292.149,0H277.083ZM261.9-35.095l-13.53-31.018-14.18,31.018ZM352.377-47.5h37.694v3.013a62.262,62.262,0,0,1-2.422,18.2,38.677,38.677,0,0,1-7.976,13.707q-12.7,14.3-32.318,14.3a44.428,44.428,0,0,1-32.791-13.825,45.842,45.842,0,0,1-13.648-33.322A45.732,45.732,0,0,1,314.8-79.111,46,46,0,0,1,348.6-93a46.247,46.247,0,0,1,19.97,4.372q8.862,4.372,17.429,14.18l-9.808,9.394Q364.962-80,348.832-80a32.68,32.68,0,0,0-24.283,9.985q-9.808,9.808-9.808,24.578,0,15.243,10.93,25.11,10.221,9.158,22.156,9.158a27.507,27.507,0,0,0,18.256-6.854q8.094-6.913,9.04-16.543H352.377Z" transform="translate(461 125.834)" fill="#ffffff"/>
        <g id="Group_89" data-name="Group 89" transform="translate(23 -7.119)">
          <g id="Group_89-2" data-name="Group 89" clip-path="url(#clip-path)">
            <path id="Path_19" data-name="Path 19" d="M148.562,109.255h28.077l9.969-23.6c2.848-6.917,4.069-10.376,6.917-17.294h.407c0,8.342-.2,11.19-.2,20.345l-.2,20.549h27.466l30.925-71.413H226.485L216.719,64.5a163.529,163.529,0,0,0-4.883,16.276h-.407c.61-9.766.814-12.614.814-18.107l.407-24.821H186.812l-9.359,24.618c-2.035,5.493-4.069,10.987-6.1,18.107h-.407c.61-9.359.814-12,1.017-17.5l.814-25.228h-23.8Zm-49.846-17.5,7.731-36.825h4.883c5.086,0,7.935,3.052,7.935,10.173,0,5.29-1.424,13.835-4.883,19.735-3.052,5.29-6.307,6.917-12.207,6.917Zm-29.908,17.5H100.75c18.718,0,28.28-6.1,34.791-14.649,5.7-7.528,8.952-18.921,8.952-28.484,0-9.969-3.255-17.5-8.342-21.973-5.493-4.883-13.021-6.307-22.99-6.307h-29.3ZM.04,78.33C-.774,99.9,10.823,110.476,30.355,110.476c10.173,0,18.921-2.238,26.246-7.528A35.751,35.751,0,0,0,69.825,80.772H44.19c-1.424,5.9-5.086,11.393-10.173,11.393-4.883,0-7.324-4.679-7.121-13.225.2-5.493,1.221-11.393,4.069-16.48s6.1-7.121,9.359-7.121c4.476,0,7.121,4.679,6.714,12.207v.407H71.656c.814-8.749-1.017-16.276-5.086-21.363-4.679-6.511-13.631-9.969-24.008-9.969-13.225,0-23.4,4.679-30.518,11.8A44.721,44.721,0,0,0,.04,78.33M103.8,175.175c40.081,0,84.841-11.19,123.7-29.7C278.163,121.259,327.2,84.027,327.2,43.539,327.2,12.207,293.829,0,254.359,0,209.6,0,157.514,16.276,134.727,31.129c-1.017.61-.61,1.221.2.814C165.652,17.9,202.478,9.359,232.182,9.359c29.094,0,62.868,8.749,62.868,41.1,0,31.739-34.18,61.647-76.7,82.806-38.453,19.125-81.178,30.518-116.783,30.518-25.635,0-65.106-5.086-65.106-34.384,0-3.459.2-8.342,1.424-12,.2-.407,0-.814-.61-.2-2.848,3.662-4.679,10.376-4.679,17.294,0,31.535,40.894,40.691,71.209,40.691m201.805-69.921v-1.533h1.313c.547,0,.658.438.658.767s-.11.767-.658.767Zm-.767,2.737h.767V105.91h.765l1.205,2.081h.876l-1.2-2.081a1.349,1.349,0,0,0,1.095-1.423c0-1.095-.767-1.423-1.642-1.423h-1.861Zm-1.861-2.409a3.449,3.449,0,1,1,6.9,0,3.449,3.449,0,1,1-6.9,0m-.767,0a4.215,4.215,0,1,0,4.27-4.27,4.275,4.275,0,0,0-4.27,4.27" transform="translate(0)" fill="#ffffff"/>
          </g>
        </g>
      </g>
      <rect id="Rectangle_8" data-name="Rectangle 8" width="8.703" height="165.356" rx="4.351" transform="translate(1357.011 50)" fill="#ffffff"/>
    </g>
  </g>
</svg>
