<svg xmlns="http://www.w3.org/2000/svg" xmlns:xlink="http://www.w3.org/1999/xlink" width="837" height="190" viewBox="0 0 400 190">
  <defs>
    <clipPath id="clip-path">
      <rect id="Rectangle_41" data-name="Rectangle 41" width="327.195" height="175.175" fill="none"/>
    </clipPath>
  </defs>
  <g id="App_Logo" data-name="App Logo" clip-path="url(#clip-App_Logo)">
    <g id="Group_6" data-name="Group 6" transform="translate(-974.5 -37.881)">
      <g id="Group_5" data-name="Group 5" transform="translate(954.5 50)">
        <g id="Group_89" data-name="Group 89" transform="translate(23 -7.119)">
          <g id="Group_89-2" data-name="Group 89" clip-path="url(#clip-path)">
            <path id="Path_19" data-name="Path 19" d="M148.562,109.255h28.077l9.969-23.6c2.848-6.917,4.069-10.376,6.917-17.294h.407c0,8.342-.2,11.19-.2,20.345l-.2,20.549h27.466l30.925-71.413H226.485L216.719,64.5a163.529,163.529,0,0,0-4.883,16.276h-.407c.61-9.766.814-12.614.814-18.107l.407-24.821H186.812l-9.359,24.618c-2.035,5.493-4.069,10.987-6.1,18.107h-.407c.61-9.359.814-12,1.017-17.5l.814-25.228h-23.8Zm-49.846-17.5,7.731-36.825h4.883c5.086,0,7.935,3.052,7.935,10.173,0,5.29-1.424,13.835-4.883,19.735-3.052,5.29-6.307,6.917-12.207,6.917Zm-29.908,17.5H100.75c18.718,0,28.28-6.1,34.791-14.649,5.7-7.528,8.952-18.921,8.952-28.484,0-9.969-3.255-17.5-8.342-21.973-5.493-4.883-13.021-6.307-22.99-6.307h-29.3ZM.04,78.33C-.774,99.9,10.823,110.476,30.355,110.476c10.173,0,18.921-2.238,26.246-7.528A35.751,35.751,0,0,0,69.825,80.772H44.19c-1.424,5.9-5.086,11.393-10.173,11.393-4.883,0-7.324-4.679-7.121-13.225.2-5.493,1.221-11.393,4.069-16.48s6.1-7.121,9.359-7.121c4.476,0,7.121,4.679,6.714,12.207v.407H71.656c.814-8.749-1.017-16.276-5.086-21.363-4.679-6.511-13.631-9.969-24.008-9.969-13.225,0-23.4,4.679-30.518,11.8A44.721,44.721,0,0,0,.04,78.33M103.8,175.175c40.081,0,84.841-11.19,123.7-29.7C278.163,121.259,327.2,84.027,327.2,43.539,327.2,12.207,293.829,0,254.359,0,209.6,0,157.514,16.276,134.727,31.129c-1.017.61-.61,1.221.2.814C165.652,17.9,202.478,9.359,232.182,9.359c29.094,0,62.868,8.749,62.868,41.1,0,31.739-34.18,61.647-76.7,82.806-38.453,19.125-81.178,30.518-116.783,30.518-25.635,0-65.106-5.086-65.106-34.384,0-3.459.2-8.342,1.424-12,.2-.407,0-.814-.61-.2-2.848,3.662-4.679,10.376-4.679,17.294,0,31.535,40.894,40.691,71.209,40.691m201.805-69.921v-1.533h1.313c.547,0,.658.438.658.767s-.11.767-.658.767Zm-.767,2.737h.767V105.91h.765l1.205,2.081h.876l-1.2-2.081a1.349,1.349,0,0,0,1.095-1.423c0-1.095-.767-1.423-1.642-1.423h-1.861Zm-1.861-2.409a3.449,3.449,0,1,1,6.9,0,3.449,3.449,0,1,1-6.9,0m-.767,0a4.215,4.215,0,1,0,4.27-4.27,4.275,4.275,0,0,0-4.27,4.27" transform="translate(0)" fill="#fff"/>
          </g>
        </g>
      </g>
    </g>
  </g>
</svg>
